# Blender v2.80 (sub 75) OBJ File: 'untitled.blend'
# www.blender.org
mtllib Enemyagain.mtl
o Enemy_Cube
v 0.250000 0.500000 -0.250000
v 0.250000 0.000000 -0.250000
v 0.250000 0.500000 0.250000
v 0.250000 0.000000 0.250000
v -0.250000 0.500000 -0.250000
v -0.250000 0.000000 -0.250000
v -0.250000 0.500000 0.250000
v -0.250000 0.000000 0.250000
v 0.250000 1.000000 0.250000
v -0.250000 1.000000 0.250000
v 0.250000 1.000000 -0.250000
v -0.250000 1.000000 -0.250000
v -0.247487 1.060000 -0.247487
v 0.247487 1.060000 -0.247487
v 0.247487 1.060000 0.247487
v 0.000000 1.560000 0.000000
v -0.247487 1.060000 0.247487
vt 0.501260 0.238191
vt 0.250630 0.238191
vt 0.250630 0.000000
vt 0.501259 0.000000
vt 0.000000 0.476383
vt 0.000000 0.238191
vt 0.250630 0.476383
vt 0.501260 0.476383
vt 0.501260 1.000000
vt 0.501260 0.759031
vt 0.751889 0.759031
vt 0.751889 1.000000
vt 0.751889 0.000000
vt 0.751889 0.238191
vt 0.501260 0.238191
vt 0.501260 0.000000
vt 0.250630 0.476383
vt 0.250630 0.714574
vt 0.000000 0.714574
vt 0.000000 0.476383
vt 0.501259 0.732632
vt 0.501260 0.973601
vt 0.250630 0.973601
vt 0.250630 0.732632
vt 0.751889 0.476383
vt 0.501260 0.476383
vt 0.250630 0.952765
vt 0.000000 0.952765
vt 0.000000 0.000000
vt 0.976827 0.000000
vt 0.976827 0.282648
vt 0.751889 0.100664
vt 0.951135 0.476383
vt 0.951135 0.759031
vt 0.726197 0.577046
vt 0.501260 0.658367
vt 0.726197 0.476383
vt 0.726197 0.759031
vt 0.250630 0.732632
vt 0.374685 0.476383
vt 0.498741 0.732632
vt 0.751889 0.997578
vt 0.751889 0.759031
vt 1.000000 0.759031
vt 1.000000 0.997578
vn -1.0000 0.0000 0.0000
vn 0.0000 0.0000 1.0000
vn 0.0000 -1.0000 0.0000
vn 1.0000 0.0000 0.0000
vn 0.0000 0.0000 -1.0000
vn 0.0000 1.0000 0.0000
vn 0.0000 0.4436 -0.8962
vn 0.8962 0.4436 0.0000
vn -0.0000 0.4436 0.8962
vn -0.8962 0.4436 0.0000
usemtl Material
s off
f 5/1/1 7/2/1 10/3/1 12/4/1
f 4/5/2 3/6/2 7/2/2 8/7/2
f 8/7/1 7/2/1 5/1/1 6/8/1
f 6/9/3 2/10/3 4/11/3 8/12/3
f 2/13/4 1/14/4 3/15/4 4/16/4
f 6/17/5 5/18/5 1/19/5 2/20/5
f 11/21/6 12/22/6 10/23/6 9/24/6
f 3/15/4 1/14/4 11/25/4 9/26/4
f 1/19/5 5/18/5 12/27/5 11/28/5
f 7/2/2 3/6/2 9/29/2 10/3/2
f 13/30/7 16/31/7 14/32/7
f 14/33/8 16/34/8 15/35/8
f 15/36/9 16/37/9 17/38/9
f 17/39/10 16/40/10 13/41/10
f 13/42/3 14/43/3 15/44/3 17/45/3
